<svg xmlns="http://www.w3.org/2000/svg" xmlns:xlink="http://www.w3.org/1999/xlink" width="43" height="48" viewBox="0 0 43 48">
    <defs>
        <path id="a" d="M21.47 47.2H0V.004h42.942V47.2z"/>
    </defs>
    <g fill="none" fill-rule="evenodd">
        <mask id="b" fill="#fff">
            <use xlink:href="#a"/>
        </mask>
        <path fill="#0A090B" d="M41.048 34.638c-.952 1.617-3.894 2.128-8.081 1.412a30.874 30.874 0 0 1-3.235-.743c.443-2.016.773-4.218.972-6.569a50.993 50.993 0 0 0 5.27-4.107c.83.8 1.604 1.598 2.273 2.398 2.726 3.224 3.744 5.992 2.801 7.61zM21.641 45.676c-2.338 0-4.771-3.475-6.27-9.319a52.058 52.058 0 0 0 6.27-2.462 52.678 52.678 0 0 0 6.271 2.462c-1.5 5.844-3.932 9.32-6.27 9.32zM10.316 36.05c-4.187.716-7.138.205-8.081-1.412-.943-1.617.075-4.385 2.8-7.6.67-.8 1.443-1.598 2.273-2.397a53.057 53.057 0 0 0 5.271 4.097c.198 2.35.528 4.553.972 6.57a30.874 30.874 0 0 1-3.235.742zM1.546 19.03c0-1.078.887-1.96 1.99-1.96 1.094 0 1.99.873 1.99 1.96 0 1.077-.887 1.96-1.99 1.96-1.094 0-1.99-.883-1.99-1.96zm.689-6.467c1.17-1.998 5.44-2.332 11.325-.697a50.678 50.678 0 0 0-.98 6.588 53.347 53.347 0 0 0-5.272 4.097c-.415-.4-.801-.79-1.179-1.18a3.44 3.44 0 0 0 .934-2.341c0-1.914-1.584-3.475-3.527-3.475a3.59 3.59 0 0 0-1.263.241c-.387-1.05-.604-2.276-.038-3.233zM21.64 1.524c2.339 0 4.772 3.475 6.271 9.319a53.425 53.425 0 0 0-6.261 2.453 51.818 51.818 0 0 0-6.28-2.462c1.49-5.835 3.932-9.31 6.27-9.31zm9.185 18.89a49.712 49.712 0 0 1 4.008 3.186 49.712 49.712 0 0 1-4.008 3.187c.113-1.04.113-5.333 0-6.374zm-7.393-6.254a49.814 49.814 0 0 1 4.828-1.83c.33 1.542.604 3.233.792 5.036-.792-.586-4.592-2.741-5.62-3.206zm-9.203 3.215c.188-1.821.462-3.512.792-5.064a49.279 49.279 0 0 1 4.847 1.858c-.868.353-4.65 2.5-5.64 3.206zm-1.783 9.412A51.429 51.429 0 0 1 8.44 23.6a49.712 49.712 0 0 1 4.007-3.187c-.132 1.533-.075 5.166 0 6.374zm7.412 6.244a50.094 50.094 0 0 1-4.837 1.84 48.061 48.061 0 0 1-.792-5.037c.858.614 4.62 2.77 5.63 3.197zm9.194-3.206a45.353 45.353 0 0 1-.792 5.036 50.094 50.094 0 0 1-4.837-1.84c1.018-.436 4.8-2.583 5.63-3.196zm-7.412 2.388c-1.386-.548-6.478-3.456-7.581-4.311-.198-1.292-.198-7.145 0-8.604 1.14-.873 6.242-3.79 7.581-4.311 1.283.502 6.413 3.42 7.573 4.311.207 1.412.188 7.257 0 8.613-1.075.846-6.186 3.745-7.573 4.302zm10.222-20.84a3.517 3.517 0 0 0 3.357 2.443 3.517 3.517 0 0 0 3.442-2.731c1.16.269 1.962.77 2.386 1.486.943 1.617-.075 4.386-2.8 7.6-.68.8-1.443 1.599-2.273 2.398a53.389 53.389 0 0 0-5.271-4.107 50.278 50.278 0 0 0-.972-6.56c.726-.213 1.434-.39 2.131-.53zm3.348-3.002c1.094 0 1.99.874 1.99 1.961 0 1.078-.887 1.96-1.99 1.96-1.094 0-1.99-.873-1.99-1.96a1.988 1.988 0 0 1 1.99-1.96zM37.097 23.6a32.883 32.883 0 0 0 2.33-2.462c3.215-3.791 4.261-7.108 2.95-9.338-.688-1.18-1.951-1.942-3.743-2.286a3.526 3.526 0 0 0-3.423-2.666 3.508 3.508 0 0 0-3.48 2.992c-.763.157-1.556.343-2.367.576C27.724 4.088 24.904 0 21.641 0 18.38 0 15.56 4.088 13.91 10.406 7.534 8.65 2.527 9.013.896 11.8c-.755 1.282-.717 2.955.066 4.869A3.414 3.414 0 0 0 0 19.038c0 1.914 1.584 3.475 3.527 3.475.462 0 .905-.093 1.32-.26.415.446.867.892 1.33 1.338a35.139 35.139 0 0 0-2.34 2.462C.633 29.843-.376 33.15.897 35.4c1.763 3.103 7.751 2.639 9.684 2.156 1.047-.26 2.179-.446 3.329-.762 1.65 6.318 4.47 10.406 7.732 10.406 3.263 0 6.083-4.088 7.733-10.406 1.14.316 2.263.576 3.329.762 1.31.223 7.61 1.347 9.684-2.156 1.32-2.23.264-5.556-2.951-9.338a33.072 33.072 0 0 0-2.34-2.462z" mask="url(#b)"/>
        <path fill="#0A090B" d="M21.5 26.571c-2.166 0-3.929-1.602-3.929-3.571s1.763-3.571 3.929-3.571S25.429 21.03 25.429 23c-.01 1.969-1.763 3.571-3.929 3.571zm0-8.571c-3.028 0-5.5 2.239-5.5 5 0 2.753 2.463 5 5.5 5 3.028 0 5.5-2.239 5.5-5-.01-2.753-2.472-5-5.5-5z"/>
    </g>
</svg>
