<svg xmlns="http://www.w3.org/2000/svg" xmlns:xlink="http://www.w3.org/1999/xlink" width="48" height="48" viewBox="0 0 48 48">
    <defs>
        <path id="a" d="M.006 47.309V.024H48V47.31z"/>
    </defs>
    <g fill="none" fill-rule="evenodd">
        <mask id="b" fill="#fff">
            <use xlink:href="#a"/>
        </mask>
        <path fill="#0A0B09" stroke="#FFF" stroke-width=".5" d="M37.668 17.893a1.06 1.06 0 0 0-.57-.565 1.07 1.07 0 0 0-1.28.385 1.053 1.053 0 0 0-.179.58 1.034 1.034 0 0 0 .31.738 1.067 1.067 0 0 0 1.33.13 1.055 1.055 0 0 0 .292-.289 1.114 1.114 0 0 0 .157-.375 1.029 1.029 0 0 0-.06-.604" mask="url(#b)"/>
        <path fill="#0A0B09" stroke="#FFF" stroke-width=".5" d="M45.89 28.755h-2.88v-1.621h.001a1.05 1.05 0 0 0 1.055-1.044v-9.637c0-1.949-1.601-3.533-3.57-3.533H7.504c-1.969 0-3.57 1.585-3.57 3.533v9.637a1.05 1.05 0 0 0 1.055 1.044v1.621H2.11V10.803c0-2.913 2.379-5.283 5.302-5.283h2.951a4.533 4.533 0 0 0 4.42 3.483h18.435a4.534 4.534 0 0 0 4.412-3.445h2.96c2.923 0 5.301 2.353 5.301 5.245v17.952zM40.9 40.478c0 2.619-2.152 4.749-4.797 4.749H11.897c-2.645 0-4.798-2.13-4.798-4.749V27.134h6.352v1.46a1.05 1.05 0 0 0 1.054 1.043h18.99a1.05 1.05 0 0 0 1.054-1.044v-1.46h6.352v13.345zM15.56 26.09v-2.856h16.88v4.315H15.56v-1.46zm26.396-1.044H34.55V22.19a1.05 1.05 0 0 0-1.054-1.044h-18.99a1.05 1.05 0 0 0-1.054 1.044v2.856H6.044v-5.71h27.169a1.05 1.05 0 0 0 1.054-1.043 1.05 1.05 0 0 0-1.054-1.044H6.043v-.796c0-.797.656-1.445 1.46-1.445h32.993c.805 0 1.46.648 1.46 1.445v8.593zM14.783 2.112h18.434c1.339 0 2.427 1.078 2.427 2.402s-1.088 2.4-2.427 2.4H14.783A2.43 2.43 0 0 1 12.58 5.52h17.286a1.05 1.05 0 0 0 1.055-1.044 1.05 1.05 0 0 0-1.055-1.044H12.617c.4-.782 1.22-1.32 2.166-1.32zM40.589 3.47h-2.96A4.534 4.534 0 0 0 33.217.024H14.783a4.535 4.535 0 0 0-4.403 3.408H7.411C3.325 3.432 0 6.74 0 10.803V29.8a1.05 1.05 0 0 0 1.055 1.044h3.934v9.635c0 3.77 3.1 6.836 6.908 6.836h24.205c3.81 0 6.909-3.066 6.909-6.836v-9.635h3.934A1.05 1.05 0 0 0 48 29.8V10.803c0-4.043-3.325-7.333-7.411-7.333z" mask="url(#b)"/>
        <path fill="#0A0B09" stroke="#FFF" stroke-width=".5" d="M30.477 33.974a1.046 1.046 0 0 0-1.473.141l-1.54 1.867h-2.418v-2.417l1.867-1.54a1.046 1.046 0 0 0-1.331-1.614L24 31.716l-1.582-1.305a1.046 1.046 0 0 0-1.331 1.614l1.867 1.54v2.417h-2.418l-1.54-1.867a1.046 1.046 0 1 0-1.614 1.332l1.305 1.582-1.305 1.581a1.046 1.046 0 1 0 1.614 1.332l1.54-1.867h2.418v2.417l-1.867 1.54a1.046 1.046 0 0 0 1.331 1.615L24 42.342l1.582 1.304a1.044 1.044 0 0 0 1.473-.141 1.046 1.046 0 0 0-.142-1.472l-1.867-1.54v-2.418h2.418l1.54 1.867a1.044 1.044 0 0 0 1.473.141 1.046 1.046 0 0 0 .141-1.473l-1.305-1.581 1.305-1.582a1.046 1.046 0 0 0-.141-1.473M32.308 4.85a1.016 1.016 0 0 0 .556.557 1.038 1.038 0 0 0 .595.058 1.035 1.035 0 0 0 .807-.807 1.014 1.014 0 0 0 0-.402 1.09 1.09 0 0 0-.153-.37.978.978 0 0 0-.284-.284 1.097 1.097 0 0 0-.37-.153 1.02 1.02 0 0 0-.929.281 1.043 1.043 0 0 0-.301.727 1.008 1.008 0 0 0 .079.393"/>
    </g>
</svg>
