<svg xmlns="http://www.w3.org/2000/svg" width="43" height="47" viewBox="0 0 43 47">
    <g fill="#000" fill-rule="evenodd">
        <path d="M12.732 3.36c.17.062.27.1.37.135 1.222.433 2.174 1.18 2.788 2.315.258.477.176.895-.211 1.124-.407.242-.821.105-1.136-.377-.06-.09-.11-.185-.17-.275-.941-1.444-2.855-1.93-4.408-1.12-1.537.803-2.195 2.664-1.504 4.218.118.267.28.392.584.433 2.536.342 4.308 1.706 5.283 3.996.299.702.362 1.508.476 2.275.054.368-.13.69-.539.812-.354.105-.666.012-.85-.299-.105-.175-.147-.402-.16-.61-.109-1.73-.925-3.057-2.399-3.983-1.651-1.038-3.974-.96-5.476.14-1.83 1.34-2.595 3.359-1.946 5.37.239.74.117 1.215-.456 1.775-2.54 2.486-1.549 6.768 1.827 7.98.575.207 1.214.249 1.825.353.428.073.726.381.716.772-.01.397-.32.709-.76.718a6.266 6.266 0 0 1-.979-.06c-1.269-.174-2.377-.707-3.372-1.519-.64 1.112-.838 2.262-.564 3.476.344 1.524 1.242 2.64 2.647 3.372.606.315.734.535.653 1.072-.449 2.96 1.054 5.452 3.923 6.458.458.16.759.427 1.007.823 1.312 2.097 3.762 3.151 6.204 2.598 2.332-.53 3.876-1.968 4.429-4.25.556-2.295-.132-4.282-2.025-5.766-.605-.474-1.377-.751-2.087-1.088-.54-.255-.755-.698-.485-1.135.26-.423.657-.415 1.072-.29 1.327.402 2.466 1.099 3.383 2.125.085.096.106.246.156.37l.182-.159v-3.39c0-4.834.005-9.667 0-14.501-.003-1.585-.88-2.538-2.486-2.737-.062-.007-.125-.009-.186-.021-.402-.084-.667-.41-.639-.786a.729.729 0 0 1 .737-.69c.293-.005.604 0 .878.088.568.18 1.116.416 1.688.635 0-3.26.043-6.531-.02-9.8-.028-1.469-1.15-2.422-2.594-2.4-1.97.032-3.658.868-5.376 1.824zm9.536 7.254c.783-.558 1.555-.82 2.4-.866.496-.028.848.237.907.671.058.418-.233.76-.729.844-.199.034-.406.03-.601.077-1.262.303-1.972 1.275-1.973 2.706-.002 8.061-.004 16.123-.001 24.184 0 .703-.01 1.41.056 2.108.226 2.416 2.06 4.437 4.493 4.994 2.394.547 4.961-.481 6.238-2.537.295-.475.668-.758 1.198-.94 2.612-.897 4.209-3.51 3.815-6.195-.118-.806-.058-.94.668-1.312.958-.491 1.69-1.203 2.163-2.151.78-1.562.715-3.108-.127-4.66-.1.071-.165.113-.225.16-1.15.891-2.45 1.384-3.922 1.417-.59.013-.94-.242-.97-.699-.03-.451.305-.759.877-.803.078-.007.156-.008.233-.016 2.165-.227 3.685-1.335 4.394-3.335.7-1.973.193-3.745-1.355-5.185-.454-.423-.463-.841-.293-1.364.596-1.834.201-3.462-1.103-4.892-1.66-1.821-4.724-2.062-6.673-.54-1.246.974-1.92 2.219-1.991 3.78-.026.553-.353.9-.809.885-.451-.015-.755-.37-.754-.882.008-3.116 2.56-5.899 5.745-6.249.324-.035.494-.168.618-.453.666-1.534.039-3.352-1.45-4.162-1.662-.903-3.567-.365-4.602 1.298-.326.524-.731.682-1.152.449-.421-.233-.5-.674-.203-1.197a4.824 4.824 0 0 1 2.347-2.09c.236-.1.478-.188.76-.298-1.213-.72-2.432-1.292-3.76-1.612a7.393 7.393 0 0 0-1.338-.2c-1.75-.09-2.87.956-2.879 2.683-.009 1.928-.002 3.855-.002 5.783v.6zM14.096 47c-.83-.25-1.689-.432-2.48-.769-1.213-.515-2.156-1.38-2.901-2.457-.138-.2-.355-.395-.58-.48-3.034-1.153-4.957-3.995-4.797-7.169.02-.388-.094-.595-.426-.805-2.84-1.801-3.76-5.647-2.037-8.501.204-.338.24-.58.02-.941-1.426-2.343-1.122-5.373.73-7.424.23-.255.3-.467.219-.811-.812-3.4 1.25-6.758 4.689-7.676.133-.035.267-.073.317-.086-.063-.772-.205-1.513-.166-2.245.08-1.477.803-2.661 2.042-3.492a72.121 72.121 0 0 1 4.011-2.521A12.86 12.86 0 0 1 16.745.144c1.855-.362 3.477-.061 4.708 1.447.05-.011.091-.008.106-.026C23.055-.219 24.98-.227 27.025.313c2.17.575 4.08 1.655 5.874 2.956.375.271.79.487 1.184.733 1.757 1.093 2.755 3.282 2.053 5.48-.036.114-.054.233-.077.332.545.2 1.088.351 1.589.588 2.75 1.303 4.204 4.278 3.515 7.196-.082.347-.045.581.206.858a6.241 6.241 0 0 1 .716 7.461c-.197.324-.176.546.013.857 1.76 2.915.849 6.733-2.046 8.567-.324.205-.406.419-.388.779.156 3.177-1.763 6.027-4.793 7.17-.178.066-.377.18-.477.329-1.299 1.932-3.12 3.031-5.453 3.331-.045.006-.087.033-.13.05h-1.313c-.073-.022-.146-.056-.221-.065-1.68-.196-3.145-.854-4.32-2.048-.544-.552-.994-1.19-1.5-1.807-.057.085-.138.19-.205.304-.716 1.204-1.71 2.116-2.96 2.78-.876.465-1.827.663-2.79.836h-1.406z"/>
        <path d="M31.572 20.997c.265 1.314 1.422 2.361 2.711 2.479.163.015.328.028.488.062.422.092.68.416.64.788-.044.404-.37.69-.815.673-1.176-.046-2.222-.439-3.091-1.246-.708-.658-1.21-1.447-1.395-2.41-.052-.272-.174-.38-.461-.426-1.242-.199-2.324-.747-3.245-1.61-.453-.425-.527-.861-.211-1.21.314-.349.758-.31 1.217.103 1.684 1.52 4.009 1.766 5.836.574 1.388-.906 2.158-2.202 2.28-3.881.019-.264.112-.591.292-.753.158-.143.504-.169.735-.113.344.084.45.41.447.75a5.933 5.933 0 0 1-.7 2.812c-.951 1.765-2.4 2.876-4.362 3.297-.088.019-.175.04-.262.063-.028.007-.053.024-.104.048M32.193 33.663c.266 0 .472.004.678-.001.711-.018 1.095.22 1.127.706.033.495-.31.79-1.01.83-1.305.072-2.469.446-3.46 1.234-1.102.874-1.77 1.949-1.919 3.273-.02.187-.033.375-.062.56-.075.485-.413.758-.896.734-.479-.025-.803-.342-.797-.824.018-1.418.493-2.704 1.428-3.845a6.761 6.761 0 0 1 2.745-2.026c.317-.128.417-.3.423-.606.054-2.683-2.25-4.946-5.234-5.12-.069-.004-.139-.005-.208-.012-.67-.064-1.054-.393-1.004-.859.05-.46.45-.717 1.098-.707 3.622.056 6.78 2.758 7.033 6.017.015.202.036.404.058.646M13.435 23.103c-.85-.362-1.71-.612-2.447-1.064-1.891-1.163-2.851-2.929-2.985-5.153-.022-.37.057-.74.432-.852.234-.07.597-.033.77.113.181.155.272.493.288.758.125 2.017 1.383 3.73 3.288 4.356 1.728.568 3.294.213 4.685-.953.08-.068.15-.147.231-.214.369-.306.805-.312 1.087-.017.311.325.288.749-.085 1.12a6.106 6.106 0 0 1-3.373 1.731c-.236.04-.373.11-.422.361-.393 2.004-2.186 3.564-4.258 3.706-.599.041-.99-.174-1.043-.647-.051-.472.283-.8.883-.848 1.269-.1 2.183-.728 2.751-1.869.093-.186.148-.39.198-.528M9.836 34.648c.023-1.74.641-3.252 1.932-4.511 1.396-1.363 3.132-2.086 5.199-2.136.629-.016.996.238 1.03.7.037.485-.305.817-.946.836-2.712.08-4.681 1.802-5.248 3.634-.061.196-.12.393-.156.593-.202 1.141-.152 1.188.918 1.79 2.267 1.276 3.477 3.125 3.603 5.54a.836.836 0 0 1-.83.905c-.487.017-.865-.327-.892-.858-.06-1.178-.463-2.228-1.321-3.135-1.033-1.093-2.334-1.691-3.916-1.803-.156-.01-.315-.004-.467-.03-.437-.071-.758-.422-.741-.79.017-.38.346-.696.804-.73.324-.024.652-.005 1.031-.005"/>
    </g>
</svg>
