<svg xmlns="http://www.w3.org/2000/svg" xmlns:xlink="http://www.w3.org/1999/xlink" width="54" height="54" viewBox="0 0 54 54">
    <defs>
        <path id="a" d="M0 54h54V0H0z"/>
    </defs>
    <g fill="none" fill-rule="evenodd">
        <mask id="b" fill="#fff">
            <use xlink:href="#a"/>
        </mask>
        <path fill="#0A0B09" stroke="#FFF" d="M37.738 16.268c-.12-.621-.24-1.223-.352-1.78-.24-1.188-.448-2.236-.529-2.94l5.594 5.595c-.704-.08-1.75-.29-2.94-.53-.544-.11-1.165-.228-1.773-.345zM34.29 32.553L21.444 19.71c1.05-.76 2.345-1.286 3.876-1.607l10.583 10.582c-.301 1.431-.809 2.753-1.613 3.87zm-15.92 3.069c-.388-2.265-.695-4.78-.625-7.188l7.803 7.803c-2.454.073-4.974-.236-7.177-.615zM4.718 37.34c1.05-.342 2.18-.47 3.332-.51l9.124 9.123c-.04 1.152-.168 2.281-.512 3.332L4.717 37.34zm27.8-3.088c-1.117.802-2.423 1.331-3.853 1.63L18.098 25.315c.3-1.43.808-2.753 1.613-3.869l12.807 12.806zm16.77-17.59c-1.05.344-2.18.472-3.333.512l-9.127-9.126c.04-1.152.168-2.282.512-3.333l11.948 11.947zm4.353-1.575a1.227 1.227 0 0 0-1.735 0c-.125.125-.262.219-.393.33L38.582 2.488c.112-.13.206-.268.331-.393A1.227 1.227 0 1 0 37.178.36c-2.877 2.876-2.845 6.716-2.82 9.8l.006.885c0 .872.259 2.154.616 3.93.586 2.902 1.382 6.875 1.275 10.59l-7.81-7.808a28.027 28.027 0 0 1 3.014.072c.618.061 1.265-.45 1.318-1.127a1.226 1.226 0 0 0-1.127-1.32c-5.918-.473-10.134.639-12.881 3.387-5.276 5.275-3.323 14.957-2.155 20.742.24 1.19.448 2.238.529 2.942L11.56 36.87c.145.016.255.017.425.043a1.23 1.23 0 0 0 1.398-1.03 1.225 1.225 0 0 0-1.029-1.396 9.071 9.071 0 0 0-1.309-.123l-.884-.005c-3.092-.02-6.923-.059-9.801 2.819a1.227 1.227 0 1 0 1.735 1.735c.125-.125.263-.22.394-.33l12.928 12.928c-.11.131-.205.269-.33.394a1.227 1.227 0 1 0 1.735 1.735c2.877-2.876 2.846-6.716 2.82-9.8l-.006-.885c0-.872-.258-2.154-.616-3.93l-.167-.833c1.87.293 3.915.522 5.97.522 3.86 0 7.729-.803 10.408-3.483 4.099-4.098 3.832-10.85 2.962-16.374.27.054.576.11.83.162 1.777.359 3.059.617 3.932.617l.884.005c.297.003.6.005.909.005 2.905 0 6.292-.223 8.892-2.824.48-.48.48-1.256 0-1.735z" mask="url(#b)"/>
    </g>
</svg>
