<svg xmlns="http://www.w3.org/2000/svg" xmlns:xlink="http://www.w3.org/1999/xlink" width="31" height="52" viewBox="0 0 31 52">
    <defs>
        <path id="a" d="M0 51.667h30.936V.015H0z"/>
    </defs>
    <g fill="none" fill-rule="evenodd">
        <mask id="b" fill="#fff">
            <use xlink:href="#a"/>
        </mask>
        <path fill="#000" stroke="#FFF" d="M23.08 41.356v4.896c1.037 0 2.196.075 3.34-.022 1.003-.086 1.772-.74 1.93-1.728.161-1.016.035-2.08.035-3.146H23.08zm-15.124.02h-5.45c0 1.02-.096 2.006.026 2.963.128 1.006.829 1.74 1.813 1.853 1.203.14 2.434.033 3.607.033-.089-.848-.235-1.635-.235-2.42.001-.786.149-1.57.24-2.429zm7.545-31.084c-1.712-.016-3.125 1.384-3.137 3.109-.012 1.708 1.407 3.144 3.11 3.146 1.658.002 3.056-1.388 3.096-3.079.04-1.71-1.362-3.16-3.07-3.176zm12.366-4.244c-.94-2.18-3.046-3.554-5.57-3.57-4.533-.026-9.066-.02-13.6-.003C6.39 2.484 4.59 3.48 3.341 5.45c-.115.182-.182.395-.33.722.431-.2.718-.324.996-.465a10.082 10.082 0 0 1 4.867-1.12c3.714.074 7.433.08 11.148.001 2.692-.057 5.318.033 7.707 1.486.016.01.048-.008.138-.025zM15.469 38.432c-2.941-.001-5.338 2.386-5.362 5.34-.024 2.976 2.404 5.442 5.356 5.438 2.959-.003 5.38-2.456 5.365-5.433-.015-2.946-2.42-5.345-5.36-5.345zm3.799-1.56v-.903V23.3c.001-.265-.03-.542.032-.793.16-.64.569-1.015 1.252-.973.634.04 1.017.399 1.11 1.034.039.26.028.53.028.795.002 1.727-.01 3.453.006 5.18.007.794.523 1.267 1.042.928.26-.17.455-.64.462-.979.04-2.177.023-4.355.02-6.533-.002-2.486-1.085-3.752-3.57-4.084-.394-.053-.878.061-1.228.263-1.988 1.145-3.946 1.151-5.914-.021-.201-.12-.4-.297-.618-.33-2.007-.298-4.13 1.5-4.163 3.552-.034 2.124-.01 4.25-.011 6.374 0 .319.003.638 0 .956-.006.493.19.845.708.874.571.033.784-.343.812-.859.013-.238.005-.478.005-.717.002-1.726-.013-3.453.011-5.179.012-.803.51-1.276 1.224-1.262.667.013 1.133.494 1.186 1.235.015.211.005.424.005.637V36.85c.796-.253 1.504-.442 2.178-.718.185-.076.366-.411.375-.634.042-.955.017-1.912.018-2.868.001-.877-.025-1.754.014-2.63.031-.727.555-1.231 1.196-1.242.636-.01 1.16.49 1.234 1.209.03.289.013.583.013.875v5.144l2.573.886zM5.395 7.732c-.866.458-1.57.862-2.303 1.207-.5.236-.644.572-.643 1.119.016 9.328.011 18.656.013 27.985 0 .258.023.517.037.815h6.677V32.02c-2.367.07-3.837-1.117-3.867-3.168-.039-2.577-.04-5.156.016-7.733.052-2.387 1.26-4.048 3.4-5.025.495-.226 1.018-.39 1.565-.596-.809-2.703-.245-5.005 2.053-6.651 1.832-1.313 3.871-1.428 5.814-.272 2.662 1.584 3.304 4.024 2.501 6.945l.792.265c2.724.906 4.15 2.823 4.181 5.697.026 2.392-.001 4.784.01 7.176.005 1.143-.355 2.158-1.339 2.72-.738.424-1.633.57-2.554.87v6.6h6.722v-.92l.001-11.241c0-5.554.004-11.109-.011-16.663 0-.285-.07-.71-.258-.83-.814-.516-1.685-.944-2.662-1.472v1.109c-.003.956.027 1.915-.023 2.869-.037.717-.613 1.241-1.244 1.181-.693-.065-1.094-.485-1.175-1.183-.033-.288-.012-.584-.012-.876V7.081H7.846c0 1.448.006 2.85-.003 4.253-.006.959-.478 1.549-1.217 1.555-.74.006-1.218-.58-1.228-1.541-.011-1.14-.003-2.28-.003-3.616zM.004 26.165c0-5.711-.01-11.423.003-17.134.01-4.383 2.6-7.812 6.629-8.758C7.372.101 8.146.034 8.905.03c4.4-.022 8.8-.016 13.2-.009 5.033.008 8.79 3.69 8.807 8.765.038 11.609.024 23.218.006 34.827-.004 3.03-2.067 5.077-5.08 5.128-1.212.02-2.426-.031-3.635.026-.37.017-.822.193-1.078.454-3.198 3.26-8.121 3.261-11.317.003-.256-.261-.707-.439-1.077-.456-1.209-.057-2.423-.007-3.635-.026-3.04-.046-5.085-2.13-5.09-5.203-.009-5.791-.002-11.583-.002-17.374z" mask="url(#b)"/>
        <path fill="#000" stroke="#FFF" d="M16.824 42.23c-.438 1.136.505 1.897 1.445 2.674.501.414.722.997.284 1.475-.298.325-.9.586-1.37.59-.863.01-3.058-2.25-3.076-3.045a73.734 73.734 0 0 1 0-3.065c.015-.837.54-1.38 1.308-1.404.796-.025 1.371.54 1.406 1.401.016.393.003.786.003 1.374"/>
    </g>
</svg>
