<svg xmlns="http://www.w3.org/2000/svg" xmlns:xlink="http://www.w3.org/1999/xlink" width="53" height="51" viewBox="0 0 53 51">
    <defs>
        <path id="a" d="M26.5 0H0v50.745h53V0H26.5z"/>
    </defs>
    <g fill="none" fill-rule="evenodd">
        <mask id="b" fill="#fff">
            <use xlink:href="#a"/>
        </mask>
        <path fill="#000" stroke="#FFF" stroke-width=".5" d="M14.692 30.719c.185-.288.212-.65.073-.963l-2.49-5.58a1.003 1.003 0 0 0-.917-.595H7.474c-.395 0-.754.233-.915.596l-2.49 5.579c-.14.312-.112.675.073.963.185.288.502.462.843.462h1.389a3.332 3.332 0 0 0-.266 1.308v.55c0 .464.095.907.266 1.309h-5.37C.45 34.348 0 34.8 0 35.358v14.375c0 .559.45 1.012 1.004 1.012h12.748c.555 0 1.005-.453 1.005-1.012V35.36c0-.559-.45-1.011-1.005-1.011h-1.293c.17-.402.266-.845.266-1.309v-.55c0-.464-.095-.907-.266-1.308h1.39c.34 0 .657-.174.843-.462zm-6.568-5.117h2.585l1.587 3.557H6.537l1.587-3.557zm2.592 6.887v.55c0 .721-.583 1.309-1.3 1.309-.717 0-1.3-.588-1.3-1.309v-.55c0-.721.583-1.308 1.3-1.308.717 0 1.3.587 1.3 1.308zm2.032 3.88v2.914H8.752c-.555 0-1.004.453-1.004 1.01 0 .56.45 1.012 1.004 1.012h3.996v2.482H8.752c-.555 0-1.004.453-1.004 1.012 0 .557.45 1.01 1.004 1.01h3.996v2.914H2.008V36.37h10.74zm13.956-10.964c0 .558-.45 1.011-1.005 1.011h-.248a1.008 1.008 0 0 1-1.004-1.011c0-.558.449-1.01 1.004-1.01h.248c.555 0 1.005.452 1.005 1.01zm17.476-4.431c0 .558-.45 1.011-1.004 1.011h-.25a1.008 1.008 0 0 1-1.003-1.011c0-.558.45-1.01 1.004-1.01h.249c.554 0 1.004.452 1.004 1.01zm3.495 4.431c0 .558-.45 1.011-1.004 1.011h-.248a1.008 1.008 0 0 1-1.005-1.011c0-.558.45-1.01 1.005-1.01h.248c.554 0 1.004.452 1.004 1.01zm1.85-9.642h-5.03a1.013 1.013 0 0 0-.94-1.368h-6.373a1.008 1.008 0 0 0-.94 1.368H20.516c.39-.641.615-1.394.615-2.198 0-2.326-1.88-4.219-4.192-4.219H8.261c-.799 0-1.546.227-2.182.62V3.058C6.079 1.372 4.715 0 3.039 0S0 1.372 0 3.06v27.404c0 .558.45 1.011 1.004 1.011.555 0 1.005-.453 1.005-1.01V3.058c0-.572.462-1.037 1.03-1.037.569 0 1.031.465 1.031 1.037v17.419c0 .558.45 1.01 1.004 1.01.555 0 1.005-.452 1.005-1.01v-2.694h13.043v8.69c0 2.284 1.846 4.143 4.117 4.143H50.99v4.394H17.676c-.555 0-1.004.452-1.004 1.01 0 .56.45 1.012 1.004 1.012h29.246v2.196c0 .559.45 1.012 1.004 1.012h4.07c.555 0 1.004-.453 1.004-1.012V19.26c0-1.928-1.559-3.497-3.475-3.497zm-32.586 0H8.261a2.192 2.192 0 0 1-2.182-2.198c0-1.211.978-2.197 2.182-2.197h8.678c1.204 0 2.183.986 2.183 2.197 0 1.212-.98 2.198-2.183 2.198zM48.93 38.219h2.061v-1.186H48.93v1.186zm2.061-9.624H23.24a2.117 2.117 0 0 1-2.108-2.122v-8.689h28.394c.809 0 1.466.662 1.466 1.476v9.335zm-10.306-3.19c0 .558-.45 1.011-1.004 1.011h-.25a1.008 1.008 0 0 1-1.003-1.011c0-.558.45-1.01 1.004-1.01h.249c.554 0 1.004.452 1.004 1.01zm-10.486-4.431c0 .558-.45 1.011-1.004 1.011h-.25a1.008 1.008 0 0 1-1.003-1.011c0-.558.449-1.01 1.004-1.01h.249c.554 0 1.004.452 1.004 1.01zm6.99 0c0 .558-.45 1.011-1.004 1.011h-.249a1.008 1.008 0 0 1-1.004-1.011c0-.558.45-1.01 1.004-1.01h.249c.555 0 1.005.452 1.005 1.01zm-3.495 4.431c0 .558-.45 1.011-1.004 1.011h-.249a1.008 1.008 0 0 1-1.004-1.011c0-.558.45-1.01 1.004-1.01h.25c.554 0 1.003.452 1.003 1.01z" mask="url(#b)"/>
    </g>
</svg>
