<svg xmlns="http://www.w3.org/2000/svg" xmlns:xlink="http://www.w3.org/1999/xlink" width="60" height="50" viewBox="0 0 60 50">
    <defs>
        <path id="a" d="M0 0v50h60V0H0z"/>
    </defs>
    <g fill="none" fill-rule="evenodd">
        <mask id="b" fill="#fff">
            <use xlink:href="#a"/>
        </mask>
        <path fill="#000" stroke="#FFF" stroke-width=".5" d="M59.598 5.447a2.094 2.094 0 0 0-1.494-.843l-4.57-.423-.515-1.368a1.912 1.912 0 0 0-1.298-1.17L45.768.063a1.921 1.921 0 0 0-1.253.096l-5.977 2.549a.952.952 0 0 0-.238 1.61l1.401 1.168L38.46 8.47c-1.619 3.89-5.397 6.49-9.626 6.625l-15.339.49-1.501-1.28a3.575 3.575 0 0 1-1.03-3.957l.421-1.127a2.349 2.349 0 0 0-1.063-2.885 2.38 2.38 0 0 0-3.326 1.076l-.253.55a10.449 10.449 0 0 0 .763 10.136c-1.198.981-2.198 2.317-2.49 4.115-.558 3.442-.787 9.982-.874 13.574a1.853 1.853 0 0 1-1.093 1.636 3.753 3.753 0 0 0-2.174 2.808L.043 45.2c-.151.9.103 1.815.695 2.51a3.113 3.113 0 0 0 2.375 1.096h2.959c.512 0 1-.217 1.342-.597.342-.38.505-.887.449-1.393a3.658 3.658 0 0 0-2.214-2.96 6.476 6.476 0 0 1 3.253-2.823 9.47 9.47 0 0 0 5.06-4.724l2.536-5.308c.815-.378 3.59-1.414 7.626-.266 1.634.465 3.183.983 4.68 1.485 2.797.936 5.11 1.71 6.873 1.756.263 4.463.444 9.59.062 11.11-.28 1.112-.156 2.11.368 2.968.881 1.443 2.55 1.875 2.737 1.919a.953.953 0 0 0 .223.026h2.213a1.75 1.75 0 0 0 1.416-.708c.336-.45.437-1.016.274-1.553a4.659 4.659 0 0 0-2.438-2.86l3.136-10.99a12.364 12.364 0 0 0 3.194-5.973l2.997-13.787c1.245-.306 2.993-.635 5.113-.962 2.257-.348 4.103-2.076 4.593-4.3l.386-1.748c.13-.582 0-1.191-.353-1.672zM43.855 2.52l-.206 3.276a.223.223 0 0 1-.143.201.226.226 0 0 1-.246-.035l-2.53-2.11 3.125-1.332zM8.488 8.759l.254-.551a.459.459 0 0 1 .64-.207c.197.11.282.344.203.555l-.42 1.127a5.485 5.485 0 0 0 1.58 6.073l.424.362c-.62.217-1.342.516-2.07.915a8.55 8.55 0 0 1-.61-8.275zm49.589-2.05l-.386 1.75a3.677 3.677 0 0 1-3.013 2.82c-2.566.396-4.546.784-5.888 1.154a3.19 3.19 0 0 1-2.368-.291 78.772 78.772 0 0 1-2.068-1.178.962.962 0 0 0-1.317.328.951.951 0 0 0 .33 1.31c.032.02.823.491 2.123 1.21.73.404 1.529.618 2.336.64l-2.84 13.06a10.472 10.472 0 0 1-2.853 5.208.954.954 0 0 0-.245.414l-3.445 12.073a.955.955 0 0 0 .66 1.18l.13.036a2.765 2.765 0 0 1 1.831 1.667h-1.862a3.217 3.217 0 0 1-1.048-.563c-.591-.497-.766-1.125-.553-1.976.766-3.047-.3-16.12-.423-17.601a.958.958 0 0 0-1.066-.87c-.522.06-.888.547-.844 1.068.081.975.186 2.354.29 3.916-1.483-.094-3.757-.855-6.141-1.653-1.448-.485-3.09-1.035-4.766-1.512-2.963-.842-5.38-.65-7.017-.274l.713-1.49c.226-.473.057-1.058-.41-1.297a.962.962 0 0 0-1.306.44l-4.403 9.212a7.559 7.559 0 0 1-4.038 3.77 8.38 8.38 0 0 0-4.63 4.497l-.115.267a.99.99 0 0 0-.085.483.958.958 0 0 0 .67.83l.706.218a1.75 1.75 0 0 1 1.2 1.342H3.148c-.277 0-.551-.08-.769-.25a1.185 1.185 0 0 1-.443-1.132l.833-4.97a1.844 1.844 0 0 1 1.068-1.38 3.772 3.772 0 0 0 2.224-3.332c.07-2.852.29-9.86.85-13.315.596-3.671 5.724-4.878 6.356-5.013l15.63-.5c4.98-.16 9.43-3.223 11.337-7.805l1.01-2.428.784.654a2.156 2.156 0 0 0 2.236.326 2.137 2.137 0 0 0 1.302-1.838l.242-3.863 5.415 1.433.273.725-.922.06c-.514.035-.94.453-.933.966a.957.957 0 0 0 1.024.943A27.423 27.423 0 0 1 55 6.234l2.926.271c.063.006.1.04.121.069.02.028.042.074.029.136z" mask="url(#b)"/>
    </g>
</svg>
