<svg xmlns="http://www.w3.org/2000/svg" width="78" height="29" viewBox="0 0 78 29">
    <g fill="#FFF" fill-rule="evenodd">
        <path d="M76.29 4.686c.006-1.606-1.221-2.837-2.847-2.856-1.51-.017-2.783 1.264-2.8 2.817-.017 1.618 1.226 2.88 2.845 2.887 1.593.006 2.795-1.215 2.801-2.848M33.472 28.902H1.144c-.718 0-.718 0-.718-.747 0-.22.003-.44 0-.659-.004-.254.088-.366.368-.365 2.469.01 4.938.005 7.408.005 19.063 0 38.126 0 57.189.005.291 0 .486-.137.668-.323.998-1.022 1.988-2.052 2.989-3.071.974-.993 1.95-1.983 2.94-2.959.393-.387.576-.828.574-1.383-.013-3.205-.013-6.41-.017-9.616-.001-.537-.004-.534-.505-.716-1.701-.618-2.697-1.84-3.031-3.626-.514-2.743 1.73-5.023 3.833-5.286 1.837-.228 3.292.496 4.336 1.958.66.924.943 2.023.758 3.208-.269 1.725-1.222 2.893-2.764 3.608-.15.07-.319.112-.483.127-.242.021-.354.157-.383.377a4.467 4.467 0 0 0-.046.595c.003 3.355 0 6.71.021 10.064.005.636-.193 1.105-.654 1.55-1.121 1.082-2.188 2.22-3.281 3.33a421.064 421.064 0 0 1-3.694 3.718c-.124.122-.347.195-.526.198-1.194.017-2.39.009-3.585.009H33.472"/>
        <path d="M64.596 13.805c-.057-.554-.087-1.112-.18-1.66-.067-.398-.206-.785-.333-1.171-.47-1.434-1.317-2.61-2.54-3.459-1.63-1.131-3.433-1.613-5.43-1.333-2.343.328-4.087 1.539-5.297 3.555-.993 1.655-1.26 3.483-.963 5.362.333 2.113 1.239 3.936 3.01 5.232 1.624 1.189 3.43 1.62 5.395 1.29 1.553-.26 2.91-.924 4.044-2.069.625-.63 1.183-1.304 1.505-2.117.457-1.154.803-2.353.79-3.63m1.824-.127c.087 2.438-.621 4.54-2.086 6.37-1.388 1.733-3.192 2.813-5.357 3.212-1.962.362-3.912.216-5.728-.657-1.72-.826-3.155-2.028-4.07-3.767-.528-1.004-.998-2.034-1.145-3.18-.312-2.45-.01-4.775 1.262-6.943 1.32-2.25 3.3-3.54 5.769-4.054 2.716-.566 5.307-.188 7.608 1.486 2.12 1.542 3.325 3.658 3.692 6.267.032.226.044.455.053.684.009.219.002.439.002.582M21.498 10.048v3.113c0 .551.033.588.592.585.756-.005 1.513-.022 2.269-.028.61-.005 1.222.025 1.83-.01 1.086-.062 1.963-.503 2.552-1.48.363-.6.58-1.23.642-1.928.151-1.687-.692-3.401-2.59-3.797-.582-.122-1.19-.15-1.788-.16-1.016-.016-2.032.017-3.048.028-.394.005-.458.068-.459.474-.001 1.068 0 2.135 0 3.203m-1.813 3.911V5.454c0-.655 0-.662.65-.664 2.034-.006 4.068-.017 6.102-.006 1.375.007 2.57.495 3.52 1.512.8.86 1.2 1.913 1.273 3.083.074 1.184-.118 2.325-.704 3.372-.535.955-1.318 1.627-2.326 2.035-.426.173-.397.16-.16.548.368.6.703 1.223 1.039 1.842.934 1.72 1.86 3.442 2.79 5.164.352.651.29.756-.446.75-.364-.004-.728-.013-1.09.002-.203.009-.307-.088-.39-.251-.455-.89-.905-1.784-1.372-2.668-.793-1.502-1.6-2.996-2.392-4.499-.145-.276-.378-.292-.626-.29-.82.007-1.638.028-2.457.032-.355.002-.71-.034-1.065-.034-.417 0-.48.072-.48.489v6.768c-.001.4-.044.44-.44.453-.306.01-.611.026-.916.05-.377.028-.509-.085-.51-.468v-8.715M9.364 23.398a9.757 9.757 0 0 1-3.92-.746c-2.18-.898-3.648-2.528-4.615-4.657C.08 16.34-.11 14.598.056 12.8.236 10.837.9 9.074 2.167 7.57 3.55 5.93 5.307 4.93 7.42 4.6c2.069-.321 4.09-.167 6.016.728.724.336 1.459.655 2.026 1.257.185.197.208.358.04.571-.208.265-.4.543-.596.818-.116.161-.24.182-.398.052-1.304-1.067-2.821-1.635-4.467-1.8C6.246 5.841 2.902 8 2.105 11.967c-.47 2.343-.081 4.526 1.157 6.532.793 1.286 1.953 2.189 3.377 2.691 2.786.984 5.335.439 7.681-1.286.174-.128.32-.297.467-.458.167-.185.338-.207.5-.017.258.301.504.614.748.926.164.21.018.347-.125.48a9.345 9.345 0 0 1-3.628 2.132c-.958.3-1.939.45-2.918.43M39.07 19.068c0-1.098-.007-2.197.004-3.295.005-.45-.087-.835-.349-1.224-.463-.69-.847-1.433-1.27-2.15-.763-1.29-1.532-2.576-2.294-3.866a509.952 509.952 0 0 1-1.928-3.284c-.065-.112-.084-.252-.125-.378.13-.028.26-.074.39-.078.376-.01.752.005 1.127-.006.275-.008.462.092.6.341.476.857.967 1.705 1.452 2.557.882 1.554 1.766 3.106 2.643 4.663.165.294.291.61.45.908.046.087.14.2.214.202.07.001.166-.116.212-.202.635-1.192 1.24-2.4 1.9-3.578.86-1.534 1.765-3.043 2.644-4.566.11-.19.253-.311.465-.316.424-.01.85-.02 1.273.003.343.017.389.116.22.407-.865 1.497-1.737 2.99-2.6 4.487-.332.575-.635 1.167-.973 1.738-.474.801-.981 1.583-1.45 2.387-.485.83-.912 1.65-.876 2.695.072 2.054.018 4.113.024 6.17 0 .253-.078.368-.338.362-.365-.01-.731-.005-1.096.006-.234.006-.327-.072-.324-.329.013-1.218.005-2.436.005-3.654"/>
    </g>
</svg>
