<svg xmlns="http://www.w3.org/2000/svg" width="2019" height="630" viewBox="0 0 2019 630">
    <g fill="#171717" fill-rule="evenodd" opacity=".02">
        <path d="M1521.403 520.43c68.319 9.767 128.35-64.011 126.55-134.83-2.198-86.336-54.268-134.259-125.12-134.32-83.066-.08-125.552 56.456-126.902 133.043-1.306 74.297 49.396 141.876 125.472 136.107m1.642 109.346c-144.165 5.962-251.404-108.007-250.442-245.11.962-137.957 101.176-241.579 246.33-242.151 152.849-.608 252.1 100.672 252.763 242.46.635 135.561-101.45 250.067-248.651 244.801M610.32 307.07h.116c0 13.17-.098 26.331.035 39.5.053 6.678.327 15.517 8.123 16.028 24.51 1.632 49.867 7.322 73.097-5.23 25.199-13.629 35.397-37.728 30.081-66.934-4.211-23.137-24.722-38.618-57.028-43.01-50.194-6.828-54.414-3.22-54.423 46.477v13.17zM491.03 384.255c0-69.81-.088-139.618.053-209.418.053-26.86 2.145-28.923 28.96-28.985 55.156-.141 110.418-2.117 165.469.485 89.07 4.208 143.704 41.864 157.337 139.38 6.233 44.607-9.191 88.244-43.396 120.016-29.304 27.222-20.678 31.562-6.375 57.769 24.908 45.612 50.874 90.634 75.738 136.265 12.617 23.146 9.668 27.239-17.27 27.398-23.54.132-47.246-1.782-70.555.511-25.737 2.523-39.475-9.844-50.08-30.564-19.715-38.503-41.223-76.133-59.703-115.21-10.153-21.444-26.911-17.412-42.963-15.578-17.535 2.003-12.405 17.422-12.59 28.174-.592 33.784 0 67.595-.318 101.388-.247 27.442-4.327 31.12-32.748 31.279-19.857.106-39.714.097-59.57.009-28.837-.133-31.883-2.929-31.945-31.306-.132-70.54-.044-141.081-.044-211.613zM252.634 629.779c-88.127 3.133-154.844-27.045-206.315-90.64C23.207 510.61 7.3 477.89 3.993 441.674c-3.986-43.719-8.14-88.417 4.435-131.455 19.056-65.255 60.13-113.184 121.239-143.018 69.503-33.92 141.661-32.014 213.616-10.742 24.946 7.38 47.459 22.64 68.057 39.534 11.5 9.436 10.626 20.628 4.436 31.564-10.458 18.466-21.71 36.525-33.394 54.249-8.783 13.31-19.206 12.48-31.674 3.213-43.543-32.35-93.004-39.111-144.272-26.85-45.139 10.794-70.517 44.424-80.076 87.771-11.172 50.71-2.319 107.182 40.836 145.251 39.778 35.095 105.49 39.26 156.732 10.416 14.003-7.874 28.588-14.98 40.562-26.198 9.56-8.959 17.919-7.476 25.36 3.487 13.184 19.427 26.428 38.837 40.45 57.655 7.283 9.771 5.81 17.353-2.4 24.918-30.042 27.698-64.15 47.328-103.629 59.615-26.057 8.111-51.805 8.164-71.637 8.694M1009.37 525.062c-.027-8.083-1.042-16.316.14-24.223 8.23-55.32-15.013-100.996-42.015-146.495-35.48-59.777-69.018-120.7-102.874-181.43-11.652-20.906-8.75-25.283 15.332-25.565 29.366-.353 58.74.141 88.115-.176 15.834-.168 26.631 6.362 32.462 21.196 16.858 42.816 42.845 81.485 57.083 125.545 1.967 6.098 5.601 12.981 13.029 13.493 7.895.538 10.532-6.389 13.284-12.566 18.48-41.343 37.305-82.535 55.512-124.001 6.934-15.805 17.131-24.338 35.347-23.818 29.348.839 58.74-.123 88.107.38 21.797.37 24.823 5.904 14.123 25.176-45.518 81.935-90.983 163.914-137.17 245.47-6.564 11.578-8.743 22.979-8.725 35.615.08 47.017.08 94.034 0 141.05-.053 33.428-.741 34.045-35.056 34.098-20.562.027-41.15-.591-61.678.15-17.73.636-25.608-6.503-25.158-24.567.67-26.43.168-52.885.141-79.332M1832.53 140.613c.089 28.916 17.489 47.18 45.288 47.541 25.58.335 46.635-20.931 46.987-47.444.326-25.439-22.058-48.589-46.705-48.29-26.83.326-45.666 20.237-45.57 48.193m44.62 139.429c-85.9 4.639-143.789-70.516-142.01-141.03 1.77-69.9 51.848-139.473 145.109-138.734 79.964.634 135 61.062 138.381 144.041 2.536 62.4-61.56 143.592-141.48 135.723"/>
    </g>
</svg>
