<svg xmlns="http://www.w3.org/2000/svg" xmlns:xlink="http://www.w3.org/1999/xlink" width="96" height="96" viewBox="0 0 96 96">
    <defs>
        <path id="a" d="M0 96h96V0H0z"/>
    </defs>
    <g fill="none" fill-rule="evenodd">
        <mask id="b" fill="#fff">
            <use xlink:href="#a"/>
        </mask>
        <path fill="#FFF" d="M66.457 45.597l-26.06-18.032c-.81-.605-2.97-.605-3.143 1.678v36.064c.192 2.283 2.391 2.322 3.144 1.678l26.059-18.032c.675-.41 1.6-2.088 0-3.356zM41.285 61.462V33.088L61.75 47.275 41.285 61.462z" mask="url(#b)"/>
        <path fill="#FFF" d="M48 0C21.532 0 0 21.532 0 48s21.532 48 48 48 48-21.532 48-48S74.468 0 48 0zm0 91.906C23.785 91.906 4.094 72.216 4.094 48 4.094 23.785 23.784 4.094 48 4.094c24.215 0 43.906 19.69 43.906 43.906 0 24.215-19.69 43.906-43.906 43.906z" mask="url(#b)"/>
    </g>
</svg>
