<svg xmlns="http://www.w3.org/2000/svg" xmlns:xlink="http://www.w3.org/1999/xlink" width="24" height="24" viewBox="0 0 24 24">
    <defs>
        <path id="a" d="M12 0H0v24h24V0z"/>
    </defs>
    <g fill="none" fill-rule="evenodd">
        <mask id="b" fill="#fff">
            <use xlink:href="#a"/>
        </mask>
        <path fill="#FFF" d="M22.408 11.24c-.31-5.419-5-9.485-9.644-9.633v.277c-.002.32.01.641-.011.96a.734.734 0 0 1-.667.674c-.38.035-.733-.193-.819-.552-.034-.142-.028-.295-.03-.443-.004-.309-.001-.618-.001-.928-5.24.275-9.44 4.802-9.634 9.64h.253c.32.003.64-.007.96.01a.74.74 0 0 1 .706.782.74.74 0 0 1-.734.732c-.396.014-.792.003-1.19.003.235 5.034 4.593 9.404 9.639 9.64v-.251c.002-.328-.01-.657.01-.984a.735.735 0 0 1 .726-.688.74.74 0 0 1 .784.728c.015.396.004.793.004 1.223 2.659-.23 4.905-1.267 6.739-3.154 1.753-1.804 2.715-3.976 2.93-6.517-.439 0-.836.013-1.233-.004-.433-.018-.732-.362-.716-.793a.736.736 0 0 1 .72-.72c.397-.015.794-.003 1.208-.003m1.592.058v1.453c-.013.051-.035.102-.04.155-.12 1.673-.562 3.258-1.372 4.724-1.872 3.386-4.714 5.458-8.521 6.183-.45.086-.91.127-1.364.188h-1.406c-.06-.013-.12-.035-.18-.039-2.067-.148-3.975-.782-5.692-1.936-2.855-1.917-4.613-4.57-5.238-7.96-.083-.45-.126-.908-.187-1.362v-1.406c.013-.067.035-.134.04-.201.135-1.87.672-3.617 1.648-5.214C3.591 2.77 6.34.861 9.933.187c.45-.084.909-.126 1.364-.187h1.406c.162.019.323.04.485.057 1.94.208 3.743.817 5.368 1.905 2.866 1.92 4.628 4.577 5.257 7.974.084.45.126.907.187 1.36" mask="url(#b)"/>
        <path fill="#FFF" d="M11.523 8.953c0-1.1-.002-2.198.002-3.297.002-.508.257-.843.636-.856.364-.011.659.292.674.73.017.475.01.953.01 1.43.001 1.591.003 3.183-.002 4.774a.63.63 0 0 0 .152.446c1.025 1.218 2.043 2.444 3.066 3.664.213.254.322.537.22.895-.146.517-.66.707-1.023.378-.059-.053-.111-.118-.163-.18-1.094-1.308-2.185-2.62-3.282-3.922-.201-.238-.296-.5-.293-.839.009-1.074.003-2.149.003-3.223"/>
    </g>
</svg>
